<svg width="64" height="64" viewBox="0 0 64 64" fill="none" xmlns="http://www.w3.org/2000/svg">
<circle cx="32" cy="32" r="32" fill="#0279B5"/>
<path d="M17.7501 45.5576V19.9135C17.7501 19.3253 17.9636 18.8177 18.3906 18.3906C18.8177 17.9636 19.3253 17.75 19.9135 17.75H35.8827C35.802 18.0135 35.739 18.2909 35.6938 18.5822C35.6486 18.8736 35.6289 19.1635 35.6347 19.4519H19.9135C19.7981 19.4519 19.6924 19.5 19.5962 19.5962C19.5 19.6923 19.452 19.7981 19.452 19.9135V41.5769L22.3135 38.5481H44.0865C44.2019 38.5481 44.3077 38.5 44.4039 38.4038C44.5 38.3077 44.5481 38.2019 44.5481 38.0865V26.0375C44.8622 25.951 45.1561 25.8327 45.4298 25.6827C45.7035 25.5327 45.9769 25.3587 46.25 25.1606V38.0865C46.25 38.6747 46.0365 39.1823 45.6094 39.6094C45.1824 40.0364 44.6747 40.25 44.0865 40.25H23.0577L17.7501 45.5576ZM19.452 19.9135V39.5866V19.4519V19.9135ZM42.4948 23.3693C41.4252 23.3693 40.5169 22.9939 39.7698 22.2433C39.0226 21.4927 38.6491 20.5826 38.6491 19.5131C38.6491 18.4435 39.0244 17.5351 39.775 16.788C40.5256 16.0409 41.4357 15.6674 42.5053 15.6674C43.5749 15.6674 44.4832 16.0427 45.2303 16.7933C45.9774 17.5439 46.351 18.454 46.351 19.5236C46.351 20.5931 45.9757 21.5015 45.225 22.2486C44.4744 22.9957 43.5643 23.3693 42.4948 23.3693Z" fill="#F0F4FF"/>
</svg>
