<svg width="32" height="32" viewBox="0 0 32 32" fill="none" xmlns="http://www.w3.org/2000/svg">
<path d="M0.666736 23.7179V22.3359C0.666736 21.5216 1.10861 20.8518 1.99237 20.3264C2.87612 19.8011 4.02816 19.5384 5.44847 19.5384C5.67607 19.5384 5.91037 19.5461 6.15137 19.5615C6.39235 19.5769 6.63506 19.603 6.8795 19.6397C6.72737 19.9995 6.61114 20.3603 6.5308 20.7221C6.45047 21.0838 6.4103 21.4542 6.4103 21.8333V23.7179H0.666702H0.666736ZM8.6667 23.7179V21.8846C8.6667 21.2604 8.84192 20.6898 9.19237 20.1728C9.54279 19.6559 10.0479 19.2051 10.7077 18.8205C11.3676 18.4359 12.147 18.1475 13.0462 17.9551C13.9453 17.7628 14.9282 17.6667 15.9949 17.6667C17.082 17.6667 18.0752 17.7628 18.9743 17.9551C19.8735 18.1475 20.653 18.4359 21.3128 18.8205C21.9726 19.2051 22.4743 19.6559 22.8179 20.1728C23.1615 20.6898 23.3333 21.2604 23.3333 21.8846V23.7179H8.6667ZM25.5897 23.7179V21.8371C25.5897 21.4378 25.5551 21.0575 25.4859 20.696C25.4166 20.3346 25.3017 19.9833 25.141 19.6422C25.4025 19.6038 25.651 19.5769 25.8865 19.5615C26.1219 19.5461 26.352 19.5384 26.5769 19.5384C28 19.5384 29.1485 19.7961 30.0224 20.3115C30.8963 20.8268 31.3333 21.5016 31.3333 22.3359V23.7179H25.5897ZM10.1667 22.2051H21.8333V21.9154C21.859 21.1017 21.3342 20.4423 20.259 19.9372C19.1838 19.432 17.7641 19.1795 16 19.1795C14.2444 19.1795 12.8269 19.432 11.7474 19.9372C10.6679 20.4423 10.141 21.1085 10.1667 21.9359V22.2051ZM5.4181 18.4872C4.86248 18.4872 4.3868 18.2878 3.99107 17.8891C3.59536 17.4904 3.3975 17.0103 3.3975 16.4487C3.3975 15.8898 3.59686 15.4124 3.99557 15.0167C4.39428 14.621 4.8744 14.4231 5.43594 14.4231C5.99489 14.4231 6.47437 14.621 6.87437 15.0167C7.27437 15.4124 7.47437 15.8958 7.47437 16.467C7.47437 17.0138 7.27671 17.4872 6.8814 17.8872C6.48611 18.2872 5.99835 18.4872 5.4181 18.4872ZM26.5625 18.4872C26.0131 18.4872 25.5384 18.2865 25.1384 17.8851C24.7385 17.4837 24.5385 17.0062 24.5385 16.4525C24.5385 15.891 24.7392 15.4124 25.1405 15.0167C25.5419 14.621 26.0215 14.4231 26.5794 14.4231C27.1452 14.4231 27.626 14.621 28.0217 15.0167C28.4175 15.4124 28.6153 15.8946 28.6153 16.4631C28.6153 17.0179 28.418 17.4939 28.0234 17.8912C27.6287 18.2885 27.1417 18.4872 26.5625 18.4872ZM16.0045 16.6667C15.0443 16.6667 14.2265 16.3301 13.5513 15.6571C12.8761 14.984 12.5385 14.1667 12.5385 13.2052C12.5385 12.2244 12.875 11.4023 13.5481 10.7389C14.2212 10.0754 15.0385 9.74371 16 9.74371C16.9808 9.74371 17.8029 10.075 18.4663 10.7376C19.1298 11.4002 19.4615 12.2212 19.4615 13.2007C19.4615 14.1609 19.1302 14.9787 18.4676 15.6539C17.805 16.3291 16.984 16.6667 16.0045 16.6667ZM16.0181 15.1539C16.5667 15.1539 17.0256 14.9654 17.3949 14.5884C17.7641 14.2113 17.9487 13.7442 17.9487 13.1871C17.9487 12.6385 17.763 12.1796 17.3915 11.8103C17.02 11.4411 16.5601 11.2565 16.0117 11.2565C15.4654 11.2565 15.0021 11.4422 14.6218 11.8137C14.2415 12.1852 14.0513 12.6451 14.0513 13.1935C14.0513 13.7398 14.2398 14.2031 14.6168 14.5834C14.9939 14.9637 15.4609 15.1539 16.0181 15.1539Z" fill="#0279B5"/>
</svg>
