<svg width="32" height="32" viewBox="0 0 32 32" fill="none" xmlns="http://www.w3.org/2000/svg">
<path d="M16.1497 15.1534C16.6373 14.5045 16.9877 13.8188 17.2009 13.0962C17.4141 12.3737 17.5207 11.5563 17.5207 10.6441C17.5207 9.73191 17.4141 8.91678 17.2009 8.19869C16.9877 7.48063 16.6373 6.79717 16.1497 6.1483C17.4982 5.8589 18.6713 6.13436 19.669 6.97467C20.6667 7.81497 21.1655 9.04035 21.1655 10.6508C21.1655 12.2613 20.6667 13.4845 19.669 14.3203C18.6713 15.1561 17.4982 15.4338 16.1497 15.1534ZM22.65 26V23.3794C22.65 22.3511 22.4344 21.3966 22.0032 20.5159C21.5719 19.6353 20.8116 18.9029 19.7222 18.3187C22.5527 18.7429 24.5235 19.3738 25.6347 20.2114C26.7458 21.049 27.3014 22.105 27.3014 23.3794V26H22.65ZM25.6069 16.5716V13.2553H22.638V11.6646H25.6069V8.34836H27.031V11.6646H30V13.2553H27.031V16.5716H25.6069ZM11.2992 15.3017C10.087 15.3017 9.09106 14.8639 8.3112 13.9883C7.53135 13.1127 7.14143 11.998 7.14143 10.6441C7.14143 9.29019 7.53135 8.17769 8.3112 7.3066C9.09106 6.43553 10.087 6 11.2992 6C12.5113 6 13.5093 6.43553 14.2932 7.3066C15.077 8.17769 15.469 9.29019 15.469 10.6441C15.469 11.998 15.077 13.1127 14.2932 13.9883C13.5093 14.8639 12.5113 15.3017 11.2992 15.3017ZM2.00003 26V23.3389C2.00003 22.6379 2.17341 21.9949 2.52018 21.4098C2.86696 20.8248 3.33645 20.3822 3.92865 20.082C5.32221 19.3972 6.59387 18.8957 7.74364 18.5775C8.89342 18.2594 10.0786 18.1003 11.2992 18.1003C12.5197 18.1003 13.6997 18.2594 14.839 18.5775C15.9783 18.8957 17.2488 19.3972 18.6504 20.082C19.2345 20.3822 19.7052 20.8248 20.0624 21.4098C20.4197 21.9949 20.5983 22.6379 20.5983 23.3389V26H2.00003ZM11.3052 13.711C12.0889 13.711 12.7414 13.4198 13.2628 12.8374C13.7842 12.255 14.0449 11.5262 14.0449 10.6508C14.0449 9.77549 13.7842 9.04664 13.2628 8.46427C12.7414 7.8819 12.0869 7.59071 11.2992 7.59071C10.5115 7.59071 9.85894 7.8819 9.34157 8.46427C8.82421 9.04664 8.56553 9.77549 8.56553 10.6508C8.56553 11.5262 8.82398 12.255 9.34088 12.8374C9.85779 13.4198 10.5126 13.711 11.3052 13.711ZM3.42413 24.4093H19.1742V23.3389C19.1742 22.9756 19.0825 22.63 18.899 22.3021C18.7156 21.9742 18.434 21.7078 18.0542 21.5028C16.7475 20.818 15.5853 20.3448 14.5676 20.0833C13.5499 19.8218 12.4604 19.691 11.2992 19.691C10.1379 19.691 9.05164 19.8218 8.04036 20.0833C7.02908 20.3448 5.85724 20.818 4.52482 21.5028C4.1708 21.6934 3.89885 21.9558 3.70896 22.2901C3.51907 22.6245 3.42413 22.9741 3.42413 23.3389V24.4093Z" fill="#0279B5"/>
</svg>
