<svg width="24" height="24" viewBox="0 0 24 24" fill="none" xmlns="http://www.w3.org/2000/svg">
<path d="M12.0052 15.3942C13.0825 15.3942 14 15.0136 14.7577 14.2524C15.5154 13.4913 15.8942 12.5721 15.8942 11.4948C15.8942 10.4175 15.5136 9.49998 14.7525 8.7423C13.9913 7.98462 13.0721 7.60578 11.9948 7.60578C10.9175 7.60578 10 7.98635 9.24232 8.7475C8.48464 9.50867 8.1058 10.4279 8.1058 11.5052C8.1058 12.5825 8.48637 13.5 9.24752 14.2577C10.0087 15.0153 10.9279 15.3942 12.0052 15.3942ZM11.9924 14.2711C11.2206 14.2711 10.567 14.001 10.0317 13.4607C9.49647 12.9204 9.22885 12.2643 9.22885 11.4924C9.22885 10.7205 9.499 10.067 10.0393 9.5317C10.5796 8.99645 11.2357 8.72883 12.0076 8.72883C12.7794 8.72883 13.433 8.99898 13.9683 9.53928C14.5035 10.0796 14.7711 10.7357 14.7711 11.5076C14.7711 12.2794 14.501 12.933 13.9607 13.4682C13.4204 14.0035 12.7643 14.2711 11.9924 14.2711ZM12.0014 18.5C9.70816 18.5 7.6263 17.858 5.7558 16.574C3.88528 15.29 2.47951 13.5987 1.5385 11.5C2.47951 9.40128 3.88482 7.70993 5.75442 6.42595C7.62401 5.14198 9.70541 4.5 11.9986 4.5C14.2918 4.5 16.3737 5.14198 18.2442 6.42595C20.1147 7.70993 21.5205 9.40128 22.4615 11.5C21.5205 13.5987 20.1152 15.29 18.2456 16.574C16.376 17.858 14.2946 18.5 12.0014 18.5ZM11.9958 17.3653C13.9832 17.3653 15.8067 16.8339 17.4663 15.7711C19.1259 14.7083 20.391 13.2846 21.2615 11.5C20.391 9.71536 19.1273 8.29164 17.4706 7.22883C15.8138 6.16601 13.9916 5.6346 12.0042 5.6346C10.0168 5.6346 8.19326 6.16601 6.53365 7.22883C4.87405 8.29164 3.60386 9.71536 2.7231 11.5C3.60386 13.2846 4.87265 14.7083 6.52945 15.7711C8.18625 16.8339 10.0084 17.3653 11.9958 17.3653Z" fill="#697077"/>
</svg>
