<svg width="16" height="16" viewBox="0 0 16 16" fill="none" xmlns="http://www.w3.org/2000/svg">
<path d="M1.64746 12.8718V11.6064C1.64746 11.2457 1.73657 10.9348 1.91478 10.6737C2.09298 10.4126 2.34533 10.2073 2.67183 10.0577C3.41199 9.72352 4.08015 9.48292 4.67629 9.33591C5.27244 9.18891 5.92949 9.11541 6.64744 9.11541C6.97394 9.11541 7.29638 9.13058 7.61474 9.16091C7.93312 9.19125 8.24487 9.24574 8.54999 9.32438L7.92564 9.95513C7.72907 9.93291 7.52244 9.91346 7.30578 9.89679C7.08911 9.88013 6.86967 9.87179 6.64744 9.87179C5.96453 9.87179 5.36239 9.93333 4.84103 10.0564C4.31966 10.1795 3.70214 10.4051 2.98848 10.7333C2.76968 10.835 2.61754 10.965 2.53206 11.1231C2.44659 11.2812 2.40386 11.4423 2.40386 11.6064V12.1154H7.28459L8.04099 12.8718H1.64746ZM10.3205 13.3692L8.21413 11.2628L8.74744 10.7295L10.3205 12.3026L13.8192 8.80386L14.3525 9.33719L10.3205 13.3692ZM6.64744 7.76794C6.00579 7.76794 5.47679 7.56084 5.06044 7.14664C4.6441 6.73243 4.43593 6.20343 4.43593 5.55963C4.43593 4.91584 4.6441 4.38577 5.06044 3.96943C5.47679 3.55308 6.00579 3.34491 6.64744 3.34491C7.2891 3.34491 7.8181 3.55308 8.23444 3.96943C8.65079 4.38577 8.85896 4.91584 8.85896 5.55963C8.85896 6.20343 8.65079 6.73243 8.23444 7.14664C7.8181 7.56084 7.2891 7.76794 6.64744 7.76794ZM6.64744 7.01156C7.06368 7.01156 7.41026 6.87309 7.68719 6.59616C7.96412 6.31924 8.10258 5.97266 8.10258 5.55643C8.10258 5.14019 7.96412 4.79362 7.68719 4.51669C7.41026 4.23977 7.06368 4.10131 6.64744 4.10131C6.23121 4.10131 5.88463 4.23977 5.60771 4.51669C5.33079 4.79362 5.19233 5.14019 5.19233 5.55643C5.19233 5.97266 5.33079 6.31924 5.60771 6.59616C5.88463 6.87309 6.23121 7.01156 6.64744 7.01156Z" fill="#3A3A3A"/>
</svg>
