<svg width="17" height="16" viewBox="0 0 17 16" fill="none" xmlns="http://www.w3.org/2000/svg">
<path d="M13.2438 13.7077L8.90829 9.38208C8.57588 9.67557 8.18827 9.90172 7.74546 10.0605C7.30265 10.2193 6.8443 10.2987 6.37043 10.2987C5.23591 10.2987 4.27574 9.907 3.4899 9.12352C2.70407 8.34003 2.31116 7.39003 2.31116 6.27353C2.31116 5.15703 2.7038 4.20669 3.48909 3.4225C4.27437 2.63831 5.22777 2.24622 6.34928 2.24622C7.4708 2.24622 8.4244 2.63807 9.21008 3.42177C9.99574 4.20545 10.3886 5.15575 10.3886 6.27267C10.3886 6.73964 10.3085 7.19428 10.1483 7.63658C9.98809 8.07889 9.75636 8.47953 9.4531 8.8385L13.7989 13.1475L13.2438 13.7077ZM6.36016 9.54237C7.27286 9.54237 8.04608 9.22505 8.67983 8.59043C9.31358 7.95582 9.63046 7.18317 9.63046 6.27248C9.63046 5.3618 9.31358 4.58915 8.67983 3.95453C8.04608 3.31992 7.27286 3.00262 6.36016 3.00262C5.44174 3.00262 4.66366 3.31992 4.02591 3.95453C3.38817 4.58915 3.06929 5.3618 3.06929 6.27248C3.06929 7.18317 3.38817 7.95582 4.02591 8.59043C4.66366 9.22505 5.44174 9.54237 6.36016 9.54237Z" fill="#6B6B6B"/>
</svg>
