<svg width="16" height="16" viewBox="0 0 16 16" fill="none" xmlns="http://www.w3.org/2000/svg">
<path d="M6.42306 4.66661H9.57689V3.29485C9.57689 3.24356 9.55552 3.19655 9.51279 3.15381C9.47005 3.11107 9.42303 3.0897 9.37174 3.0897H6.62821C6.57692 3.0897 6.5299 3.11107 6.48716 3.15381C6.44442 3.19655 6.42306 3.24356 6.42306 3.29485V4.66661ZM2.62821 13.9999C2.36677 13.9999 2.14116 13.905 1.95136 13.7152C1.76156 13.5254 1.66666 13.2998 1.66666 13.0384V5.62816C1.66666 5.36673 1.76156 5.14111 1.95136 4.95131C2.14116 4.76151 2.36677 4.66661 2.62821 4.66661H5.66666V3.29485C5.66666 3.03341 5.76156 2.8078 5.95136 2.61801C6.14116 2.42821 6.36677 2.33331 6.62821 2.33331H9.37174C9.63317 2.33331 9.85879 2.42821 10.0486 2.61801C10.2384 2.8078 10.3333 3.03341 10.3333 3.29485V4.66661H13.3717C13.6332 4.66661 13.8588 4.76151 14.0486 4.95131C14.2384 5.14111 14.3333 5.36673 14.3333 5.62816V8.94606C14.2162 8.85803 14.0963 8.78132 13.9737 8.71595C13.851 8.65056 13.7188 8.58539 13.5769 8.52043V5.62816C13.5769 5.57687 13.5555 5.52986 13.5128 5.48711C13.47 5.44438 13.423 5.42301 13.3717 5.42301H2.62821C2.57692 5.42301 2.5299 5.44438 2.48716 5.48711C2.44442 5.52986 2.42306 5.57687 2.42306 5.62816V13.0384C2.42306 13.0897 2.44442 13.1367 2.48716 13.1794C2.5299 13.2221 2.57692 13.2435 2.62821 13.2435H8.06407C8.08664 13.3767 8.12262 13.5068 8.17202 13.6338C8.22142 13.7608 8.27433 13.8828 8.33074 13.9999H2.62821Z" fill="#697077"/>
<path d="M12.1667 11.5036C11.8458 11.5036 11.5813 11.4015 11.3732 11.1972C11.165 10.9929 11.0609 10.7333 11.0609 10.4184C11.0609 10.1015 11.165 9.84138 11.3732 9.63812C11.5813 9.43488 11.8458 9.33325 12.1667 9.33325C12.4875 9.33325 12.752 9.43488 12.9602 9.63812C13.1683 9.84138 13.2724 10.1015 13.2724 10.4184C13.2724 10.7333 13.1683 10.9929 12.9602 11.1972C12.752 11.4015 12.4875 11.5036 12.1667 11.5036ZM9.66666 13.9999V13.379C9.66666 13.2033 9.71409 13.0502 9.80897 12.9198C9.90384 12.7893 10.0271 12.6891 10.1788 12.6191C10.5297 12.466 10.8679 12.3506 11.1936 12.273C11.5192 12.1955 11.8436 12.1567 12.1667 12.1567C12.4897 12.1567 12.8132 12.1963 13.1372 12.2756C13.4611 12.3548 13.7985 12.4693 14.1493 12.6191C14.3045 12.6891 14.4295 12.7893 14.5243 12.9198C14.6192 13.0502 14.6667 13.2033 14.6667 13.379V13.9999H9.66666Z" fill="#697077"/>
</svg>
