<svg width="32" height="32" viewBox="0 0 32 32" fill="none" xmlns="http://www.w3.org/2000/svg">
<path d="M1.99994 28V25.4241C1.99994 24.7272 2.16261 24.1476 2.48796 23.6854C2.81331 23.2232 3.27655 22.8392 3.87769 22.5334C5.0339 21.9503 6.27763 21.4756 7.60888 21.1094C8.94016 20.7432 10.3692 20.5601 11.896 20.5601C13.4228 20.5601 14.8497 20.7432 16.1767 21.1094C17.5036 21.4756 18.7495 21.9503 19.9143 22.5334C20.5069 22.8392 20.968 23.2232 21.2976 23.6854C21.6272 24.1476 21.792 24.7272 21.792 25.4241V28H1.99994ZM3.51136 26.4267H20.2806V25.4241C20.2806 25.0418 20.1734 24.732 19.9591 24.4947C19.7448 24.2574 19.4873 24.0676 19.1867 23.9253C18.2577 23.4862 17.1941 23.0778 15.9961 22.7C14.798 22.3222 13.4313 22.1333 11.896 22.1333C10.3606 22.1333 8.99181 22.3222 7.78949 22.7C6.58716 23.0778 5.52574 23.4862 4.60523 23.9253C4.30463 24.0676 4.04717 24.2574 3.83283 24.4947C3.61852 24.732 3.51136 25.0418 3.51136 25.4241V26.4267ZM11.896 17.8133C10.5929 17.8133 9.53065 17.3787 8.70918 16.5094C7.88771 15.64 7.47697 14.5147 7.47697 13.1334H7.16958C7.00904 13.1334 6.8707 13.0729 6.75456 12.952C6.63845 12.8311 6.58039 12.6871 6.58039 12.52C6.58039 12.3618 6.63845 12.22 6.75456 12.0947C6.8707 11.9694 7.00904 11.9067 7.16958 11.9067H7.47697C7.48552 11.1245 7.66057 10.4147 8.00213 9.77739C8.3437 9.14007 8.81848 8.58141 9.42646 8.10139V9.44008C9.42646 9.56985 9.47428 9.68228 9.56993 9.77739C9.66555 9.87251 9.77571 9.92008 9.90039 9.92008C10.0387 9.92008 10.1501 9.87251 10.2347 9.77739C10.3192 9.68228 10.3615 9.56985 10.3615 9.44008V7.65072C10.5391 7.59562 10.7748 7.54629 11.0685 7.50273C11.3623 7.45916 11.6449 7.43738 11.9165 7.43738C12.188 7.43738 12.4707 7.45916 12.7644 7.50273C13.0582 7.54629 13.2938 7.59562 13.4715 7.65072V9.44008C13.4715 9.56985 13.5137 9.68228 13.5983 9.77739C13.6828 9.87251 13.7942 9.92008 13.9326 9.92008C14.0572 9.92008 14.1674 9.87251 14.263 9.77739C14.3587 9.68228 14.4065 9.56985 14.4065 9.44008V8.10139C15.023 8.58141 15.491 9.14007 15.8103 9.77739C16.1297 10.4147 16.2979 11.1245 16.315 11.9067H16.6224C16.7829 11.9067 16.9213 11.9694 17.0374 12.0947C17.1535 12.22 17.2116 12.3618 17.2116 12.52C17.2116 12.6871 17.1535 12.8311 17.0374 12.952C16.9213 13.0729 16.7829 13.1334 16.6224 13.1334H16.315C16.315 14.5147 15.9021 15.64 15.0764 16.5094C14.2507 17.3787 13.1905 17.8133 11.896 17.8133ZM11.896 16.24C12.7858 16.24 13.4928 15.96 14.0171 15.4C14.5414 14.84 14.8036 14.1112 14.8036 13.2134H8.98839C8.98839 14.1112 9.25054 14.84 9.77484 15.4C10.2992 15.96 11.0062 16.24 11.896 16.24ZM21.9535 20.112L21.9125 19.12C21.7485 19.0453 21.5726 18.9458 21.3847 18.8214C21.1969 18.6969 21.0364 18.5724 20.9031 18.448L20.0373 18.92L19.4071 17.9307L20.2601 17.3253C20.2157 17.224 20.1914 17.1263 20.1871 17.032C20.1829 16.9378 20.1807 16.8445 20.1807 16.752C20.1807 16.6507 20.1829 16.5573 20.1871 16.472C20.1914 16.3867 20.2157 16.2889 20.2601 16.1787L19.4071 15.56L20.0373 14.5707L20.9031 15.0427C21.0586 14.9182 21.2246 14.796 21.4014 14.676C21.5782 14.556 21.7485 14.4542 21.9125 14.3707L21.9535 13.392H23.1319L23.1857 14.3707C23.3496 14.4542 23.52 14.556 23.6967 14.676C23.8735 14.796 24.0396 14.9182 24.195 15.0427L25.0481 14.5707L25.6911 15.56L24.838 16.1787C24.8824 16.2889 24.9046 16.3867 24.9046 16.472V17.032C24.9046 17.1263 24.8824 17.224 24.838 17.3253L25.6911 17.9307L25.0481 18.92L24.195 18.448C24.0618 18.5724 23.9013 18.6969 23.7134 18.8214C23.5255 18.9458 23.3496 19.0453 23.1857 19.12L23.1319 20.112H21.9535ZM22.5427 18.096C22.9064 18.096 23.2147 17.9667 23.4675 17.708C23.7202 17.4493 23.8466 17.1307 23.8466 16.752C23.8466 16.3733 23.7202 16.0525 23.4675 15.7893C23.2147 15.5262 22.9064 15.3947 22.5427 15.3947C22.1789 15.3947 21.8728 15.5262 21.6243 15.7893C21.3758 16.0525 21.2515 16.3733 21.2515 16.752C21.2515 17.1307 21.3758 17.4493 21.6243 17.708C21.8728 17.9667 22.1789 18.096 22.5427 18.096ZM25.4861 12.456L25.2761 11.3627C25.037 11.288 24.7795 11.1609 24.5037 10.9813C24.2279 10.8018 24.0123 10.6062 23.8568 10.3947L22.6093 10.9093L22.0457 9.89598L23.0832 9.08534C23.0388 8.96088 23 8.82265 22.9667 8.67065C22.9334 8.51867 22.9167 8.3689 22.9167 8.22133C22.9167 8.08267 22.9334 7.93512 22.9667 7.77868C23 7.62221 23.0388 7.48177 23.0832 7.35734L22.0457 6.56L22.6093 5.54669L23.8568 6.04801C24.0123 5.83645 24.2279 5.63733 24.5037 5.45067C24.7795 5.264 25.037 5.14489 25.2761 5.09335L25.4861 4H26.5595L26.7696 5.09335C27.0086 5.14489 27.2661 5.264 27.542 5.45067C27.8178 5.63733 28.0376 5.83645 28.2016 6.04801L29.4364 5.54669L29.9999 6.56L28.9624 7.35734C29.0068 7.48177 29.0457 7.62221 29.079 7.77868C29.1123 7.93512 29.1289 8.08267 29.1289 8.22133C29.1289 8.3689 29.1123 8.51867 29.079 8.67065C29.0457 8.82265 29.0068 8.96088 28.9624 9.08534L29.9999 9.89598L29.4364 10.9093L28.2016 10.3947C28.0376 10.6062 27.8178 10.8018 27.542 10.9813C27.2661 11.1609 27.0086 11.288 26.7696 11.3627L26.5595 12.456H25.4861ZM26.0292 10.2454C26.5843 10.2454 27.045 10.0547 27.4113 9.67335C27.7776 9.29202 27.9608 8.80801 27.9608 8.22133C27.9608 7.64356 27.7776 7.164 27.4113 6.78266C27.045 6.40133 26.5843 6.21066 26.0292 6.21066C25.4656 6.21066 25.0007 6.40133 24.6343 6.78266C24.268 7.164 24.0848 7.64356 24.0848 8.22133C24.0848 8.80801 24.268 9.29202 24.6343 9.67335C25.0007 10.0547 25.4656 10.2454 26.0292 10.2454Z" fill="#0279B5"/>
</svg>
