<svg width="24" height="24" viewBox="0 0 24 24" fill="none" xmlns="http://www.w3.org/2000/svg">
<path d="M7.10296 20C6.80308 20 6.54428 19.8883 6.32657 19.6649C6.10886 19.4415 6 19.1759 6 18.8682V7.50505C6 7.19733 6.10886 6.93176 6.32657 6.70835C6.54428 6.48495 6.80308 6.37324 7.10296 6.37324H8.51472V5H9.47795V6.37324H15.5515V5H16.4926V6.37324H17.897C18.1969 6.37324 18.4557 6.48495 18.6734 6.70835C18.8911 6.93176 19 7.19733 19 7.50505V18.8682C19 19.1759 18.8911 19.4415 18.6734 19.6649C18.4557 19.8883 18.1969 20 17.897 20H7.10296ZM7.10296 19.1097H17.897C17.9559 19.1097 18.0098 19.0845 18.0588 19.0342C18.1079 18.9839 18.1324 18.9286 18.1324 18.8682V11.074H6.86764V18.8682C6.86764 18.9286 6.89215 18.9839 6.94116 19.0342C6.99019 19.0845 7.04413 19.1097 7.10296 19.1097ZM6.86764 10.1836H18.1324V7.50505C18.1324 7.44468 18.1079 7.38934 18.0588 7.33903C18.0098 7.28873 17.9559 7.26358 17.897 7.26358H7.10296C7.04413 7.26358 6.99019 7.28873 6.94116 7.33903C6.89215 7.38934 6.86764 7.44468 6.86764 7.50505V10.1836ZM12.5 14.1751C12.3127 14.1751 12.1532 14.1074 12.0213 13.9721C11.8895 13.8368 11.8235 13.673 11.8235 13.4809C11.8235 13.2887 11.8895 13.125 12.0213 12.9897C12.1532 12.8544 12.3127 12.7867 12.5 12.7867C12.6873 12.7867 12.8468 12.8544 12.9787 12.9897C13.1105 13.125 13.1765 13.2887 13.1765 13.4809C13.1765 13.673 13.1105 13.8368 12.9787 13.9721C12.8468 14.1074 12.6873 14.1751 12.5 14.1751ZM9.44117 14.1751C9.25392 14.1751 9.09436 14.1074 8.9625 13.9721C8.83064 13.8368 8.76471 13.673 8.76471 13.4809C8.76471 13.2887 8.83064 13.125 8.9625 12.9897C9.09436 12.8544 9.25392 12.7867 9.44117 12.7867C9.62842 12.7867 9.78797 12.8544 9.91984 12.9897C10.0517 13.125 10.1176 13.2887 10.1176 13.4809C10.1176 13.673 10.0517 13.8368 9.91984 13.9721C9.78797 14.1074 9.62842 14.1751 9.44117 14.1751ZM15.5588 14.1751C15.3716 14.1751 15.212 14.1074 15.0802 13.9721C14.9483 13.8368 14.8824 13.673 14.8824 13.4809C14.8824 13.2887 14.9483 13.125 15.0802 12.9897C15.212 12.8544 15.3716 12.7867 15.5588 12.7867C15.7461 12.7867 15.9056 12.8544 16.0375 12.9897C16.1694 13.125 16.2353 13.2887 16.2353 13.4809C16.2353 13.673 16.1694 13.8368 16.0375 13.9721C15.9056 14.1074 15.7461 14.1751 15.5588 14.1751ZM12.5 17.2535C12.3127 17.2535 12.1532 17.1859 12.0213 17.0506C11.8895 16.9153 11.8235 16.7515 11.8235 16.5594C11.8235 16.3672 11.8895 16.2035 12.0213 16.0682C12.1532 15.9329 12.3127 15.8652 12.5 15.8652C12.6873 15.8652 12.8468 15.9329 12.9787 16.0682C13.1105 16.2035 13.1765 16.3672 13.1765 16.5594C13.1765 16.7515 13.1105 16.9153 12.9787 17.0506C12.8468 17.1859 12.6873 17.2535 12.5 17.2535ZM9.44117 17.2535C9.25392 17.2535 9.09436 17.1859 8.9625 17.0506C8.83064 16.9153 8.76471 16.7515 8.76471 16.5594C8.76471 16.3672 8.83064 16.2035 8.9625 16.0682C9.09436 15.9329 9.25392 15.8652 9.44117 15.8652C9.62842 15.8652 9.78797 15.9329 9.91984 16.0682C10.0517 16.2035 10.1176 16.3672 10.1176 16.5594C10.1176 16.7515 10.0517 16.9153 9.91984 17.0506C9.78797 17.1859 9.62842 17.2535 9.44117 17.2535ZM15.5588 17.2535C15.3716 17.2535 15.212 17.1859 15.0802 17.0506C14.9483 16.9153 14.8824 16.7515 14.8824 16.5594C14.8824 16.3672 14.9483 16.2035 15.0802 16.0682C15.212 15.9329 15.3716 15.8652 15.5588 15.8652C15.7461 15.8652 15.9056 15.9329 16.0375 16.0682C16.1694 16.2035 16.2353 16.3672 16.2353 16.5594C16.2353 16.7515 16.1694 16.9153 16.0375 17.0506C15.9056 17.1859 15.7461 17.2535 15.5588 17.2535Z" fill="white"/>
</svg>
