<svg width="32" height="32" viewBox="0 0 32 32" fill="none" xmlns="http://www.w3.org/2000/svg">
<path d="M2 26V23.2059C2 22.4321 2.18533 21.7475 2.55598 21.152C2.92659 20.5566 3.44549 20.1009 4.11269 19.7849C5.59219 19.0855 6.94353 18.5641 8.16671 18.2206C9.38989 17.8771 10.7537 17.7054 12.2582 17.7054C13.7626 17.7054 15.1208 17.8771 16.3326 18.2206C17.5444 18.5641 18.8944 19.0855 20.3827 19.7849C21.0411 20.1009 21.5591 20.5566 21.9367 21.152C22.3144 21.7475 22.5032 22.4321 22.5032 23.2059V26H2ZM24.7376 26V23.2483C24.7376 21.9386 24.4543 20.8459 23.8879 19.9704C23.3215 19.0948 22.5813 18.3785 21.6674 17.8214C22.88 18.0083 24.0322 18.2635 25.124 18.5872C26.2157 18.9109 27.1289 19.2757 27.8635 19.6817C28.5097 20.0721 29.0274 20.5739 29.4164 21.1868C29.8055 21.7999 30 22.487 30 23.2483V26H24.7376ZM12.2582 14.7667C10.9382 14.7667 9.85135 14.3071 8.99771 13.3877C8.14409 12.4684 7.71728 11.2979 7.71728 9.87631C7.71728 8.4547 8.14409 7.28657 8.99771 6.37193C9.85135 5.45731 10.9382 5 12.2582 5C13.5782 5 14.6628 5.45731 15.5121 6.37193C16.3613 7.28657 16.786 8.4547 16.786 9.87631C16.786 11.2979 16.3613 12.4684 15.5121 13.3877C14.6628 14.3071 13.5782 14.7667 12.2582 14.7667ZM23.0552 9.87631C23.0552 11.2979 22.6305 12.4684 21.7813 13.3877C20.932 14.3071 19.8458 14.7667 18.5227 14.7667C18.3672 14.7667 18.2015 14.7554 18.0253 14.7328C17.8492 14.7101 17.6841 14.6686 17.5299 14.6082C18.0181 14.0348 18.3886 13.3464 18.6413 12.543C18.894 11.7395 19.0203 10.8524 19.0203 9.88161C19.0203 8.91083 18.8889 8.04468 18.626 7.28316C18.3631 6.52164 17.9978 5.80871 17.5299 5.14438C17.6753 5.10851 17.8405 5.07548 18.0253 5.0453C18.2102 5.0151 18.3754 5 18.5208 5C19.8452 5 20.932 5.45731 21.7813 6.37193C22.6305 7.28657 23.0552 8.4547 23.0552 9.87631ZM3.55087 24.3298H20.9524V23.2059C20.9524 22.8133 20.8485 22.4448 20.6409 22.1004C20.4332 21.7559 20.1349 21.4818 19.7458 21.278C18.3158 20.5589 17.0559 20.0621 15.9659 19.7875C14.8759 19.5129 13.64 19.3756 12.2582 19.3756C10.8764 19.3756 9.63699 19.5129 8.53997 19.7875C7.44296 20.0621 6.17947 20.5589 4.74953 21.278C4.36049 21.4818 4.06345 21.7559 3.85842 22.1004C3.65339 22.4448 3.55087 22.8133 3.55087 23.2059V24.3298ZM12.2516 13.0965C13.105 13.0965 13.8156 12.7908 14.3834 12.1793C14.9512 11.5678 15.2351 10.8025 15.2351 9.88337C15.2351 8.96427 14.9512 8.19897 14.3834 7.58748C13.8156 6.97599 13.105 6.67025 12.2516 6.67025C11.3982 6.67025 10.6876 6.97599 10.1198 7.58748C9.55201 8.19897 9.26812 8.96427 9.26812 9.88337C9.26812 10.8025 9.55201 11.5678 10.1198 12.1793C10.6876 12.7908 11.3982 13.0965 12.2516 13.0965Z" fill="#0279B5"/>
</svg>
