<svg width="16" height="16" viewBox="0 0 16 16" fill="none" xmlns="http://www.w3.org/2000/svg">
<path d="M6.42309 4.33336H9.57692V2.96159C9.57692 2.91031 9.55555 2.86329 9.51282 2.82056C9.47008 2.77782 9.42306 2.75644 9.37177 2.75644H6.62824C6.57695 2.75644 6.52993 2.77782 6.48719 2.82056C6.44445 2.86329 6.42309 2.91031 6.42309 2.96159V4.33336ZM2.62824 13.6667C2.3668 13.6667 2.14119 13.5718 1.95139 13.382C1.76159 13.1922 1.66669 12.9665 1.66669 12.7051V5.29491C1.66669 5.03348 1.76159 4.80786 1.95139 4.61806C2.14119 4.42826 2.3668 4.33336 2.62824 4.33336H5.66669V2.96159C5.66669 2.70016 5.76159 2.47455 5.95139 2.28476C6.14119 2.09496 6.3668 2.00006 6.62824 2.00006H9.37177C9.6332 2.00006 9.85882 2.09496 10.0486 2.28476C10.2384 2.47455 10.3333 2.70016 10.3333 2.96159V4.33336H13.3718C13.6332 4.33336 13.8588 4.42826 14.0486 4.61806C14.2384 4.80786 14.3333 5.03348 14.3333 5.29491V8.61281C14.2162 8.52478 14.0963 8.44807 13.9737 8.38269C13.8511 8.31731 13.7188 8.25213 13.5769 8.18718V5.29491C13.5769 5.24362 13.5556 5.19661 13.5128 5.15386C13.4701 5.11113 13.4231 5.08976 13.3718 5.08976H2.62824C2.57695 5.08976 2.52993 5.11113 2.48719 5.15386C2.44445 5.19661 2.42309 5.24362 2.42309 5.29491V12.7051C2.42309 12.7564 2.44445 12.8034 2.48719 12.8462C2.52993 12.8889 2.57695 12.9103 2.62824 12.9103H8.0641C8.08667 13.0435 8.12265 13.1736 8.17205 13.3005C8.22145 13.4275 8.27436 13.5496 8.33077 13.6667H2.62824ZM12.0573 14.8718C11.2678 14.8718 10.5908 14.5929 10.0263 14.035C9.46177 13.4771 9.1795 12.7979 9.1795 11.9972C9.1795 11.203 9.46191 10.5241 10.0267 9.96063C10.5915 9.39715 11.2687 9.11541 12.0581 9.11541C12.8476 9.11541 13.5246 9.39641 14.0891 9.95841C14.6536 10.5204 14.9359 11.2022 14.9359 12.0038C14.9359 12.8027 14.6535 13.4804 14.0887 14.0369C13.5238 14.5935 12.8467 14.8718 12.0573 14.8718ZM12.0526 13.7269C12.1517 13.7269 12.2352 13.6957 12.3032 13.6333C12.3711 13.5709 12.4051 13.4884 12.4051 13.3859C12.4051 13.2833 12.3706 13.1998 12.3015 13.1352C12.2325 13.0707 12.1523 13.0384 12.0609 13.0384C11.9562 13.0384 11.8716 13.0707 11.8071 13.1352C11.7425 13.1998 11.7103 13.2833 11.7103 13.3859C11.7103 13.4884 11.7425 13.5709 11.8071 13.6333C11.8716 13.6957 11.9534 13.7269 12.0526 13.7269ZM11.7897 12.3872H12.3154V10.2603H11.7897V12.3872Z" fill="#697077"/>
</svg>
