<svg width="16" height="16" viewBox="0 0 16 16" fill="none" xmlns="http://www.w3.org/2000/svg">
<path d="M2.62821 13.6667C2.36677 13.6667 2.14116 13.5718 1.95136 13.382C1.76156 13.1922 1.66666 12.9665 1.66666 12.7051V5.13593C1.66666 4.87451 1.76156 4.64889 1.95136 4.45909C2.14116 4.26929 2.36677 4.17439 2.62821 4.17439H5.78846V2.96159C5.78846 2.70604 5.88336 2.48189 6.07316 2.28916C6.26295 2.09643 6.48856 2.00006 6.74999 2.00006H9.24996C9.51139 2.00006 9.737 2.09643 9.92679 2.28916C10.1166 2.48189 10.2115 2.70604 10.2115 2.96159V4.17439H13.3717C13.6332 4.17439 13.8588 4.26929 14.0486 4.45909C14.2384 4.64889 14.3333 4.87451 14.3333 5.13593V8.77566C14.2162 8.68763 14.0963 8.60643 13.9737 8.53208C13.851 8.45771 13.7188 8.38677 13.5769 8.31926V5.13593C13.5769 5.08037 13.5577 5.03229 13.5192 4.99169C13.4807 4.95109 13.4316 4.93079 13.3717 4.93079H2.62821C2.56837 4.93079 2.51922 4.95109 2.48076 4.99169C2.44229 5.03229 2.42306 5.08037 2.42306 5.13593V12.7051C2.42306 12.7649 2.44229 12.8158 2.48076 12.8577C2.51922 12.8996 2.56837 12.9171 2.62821 12.9103H8.09987C8.13072 13.0453 8.16986 13.1759 8.21729 13.3019C8.26472 13.428 8.32006 13.5496 8.38331 13.6667H2.62821ZM6.54486 4.17439H9.45509V2.96159C9.45509 2.90176 9.43586 2.85261 9.39741 2.81414C9.35894 2.77568 9.30979 2.75644 9.24996 2.75644H6.74999C6.69016 2.75644 6.64101 2.77568 6.60254 2.81414C6.56408 2.85261 6.54486 2.90176 6.54486 2.96159V4.17439Z" fill="#697077"/>
<path d="M11.2526 12.8494L13.1441 10.9579L12.8996 10.7177L11.2526 12.3673L10.4213 11.536L10.1838 11.7762L11.2526 12.8494ZM11.6671 14.3333C11.3012 14.3333 10.9564 14.2633 10.6328 14.1234C10.3091 13.9834 10.0261 13.7923 9.78372 13.55C9.54132 13.3077 9.35009 13.0248 9.21006 12.7013C9.07002 12.3778 9 12.0331 9 11.6671C9 11.2983 9.06999 10.9516 9.20997 10.6271C9.34994 10.3026 9.54108 10.0203 9.78337 9.78021C10.0257 9.54015 10.3086 9.35009 10.632 9.21006C10.9555 9.07002 11.3003 9 11.6662 9C12.035 9 12.3817 9.06999 12.7062 9.20997C13.0308 9.34994 13.3131 9.53991 13.5531 9.77986C13.7932 10.0198 13.9832 10.302 14.1233 10.6264C14.2633 10.9508 14.3333 11.2974 14.3333 11.6662C14.3333 12.0321 14.2633 12.3769 14.1234 12.7006C13.9834 13.0242 13.7934 13.3072 13.5535 13.5496C13.3135 13.792 13.0313 13.9832 12.707 14.1233C12.3826 14.2633 12.036 14.3333 11.6671 14.3333Z" fill="#697077"/>
</svg>
