<svg width="24" height="24" viewBox="0 0 24 24" fill="none" xmlns="http://www.w3.org/2000/svg">
<path d="M12.0022 11.5673C12.4328 11.5673 12.8013 11.4133 13.1077 11.1055C13.4141 10.7976 13.5673 10.4283 13.5673 9.99775C13.5673 9.56718 13.4134 9.1987 13.1055 8.8923C12.7976 8.58588 12.4284 8.43268 11.9978 8.43268C11.5672 8.43268 11.1987 8.58662 10.8923 8.8945C10.5859 9.20238 10.4327 9.57162 10.4327 10.0022C10.4327 10.4328 10.5866 10.8013 10.8945 11.1077C11.2024 11.4141 11.5716 11.5673 12.0022 11.5673ZM12 20.2942C14.191 18.3417 15.8413 16.4885 16.951 14.7346C18.0606 12.9808 18.6154 11.4692 18.6154 10.2C18.6154 8.20474 17.9784 6.57003 16.7043 5.29585C15.4302 4.02167 13.8621 3.38457 12 3.38457C10.1379 3.38457 8.56984 4.02167 7.29576 5.29585C6.02165 6.57003 5.38461 8.20474 5.38461 10.2C5.38461 11.4692 5.94871 12.9808 7.07693 14.7346C8.20513 16.4885 9.84616 18.3417 12 20.2942ZM12 21.8077C9.39361 19.5436 7.45034 17.442 6.17021 15.5029C4.89009 13.5638 4.25003 11.7961 4.25003 10.2C4.25003 7.77691 5.03016 5.84614 6.59041 4.40768C8.15066 2.96923 9.95386 2.25 12 2.25C14.0462 2.25 15.8494 2.96923 17.4096 4.40768C18.9699 5.84614 19.75 7.77691 19.75 10.2C19.75 11.7961 19.1099 13.5638 17.8298 15.5029C16.5497 17.442 14.6064 19.5436 12 21.8077Z" fill="black"/>
</svg>
