<svg width="17" height="16" viewBox="0 0 17 16" fill="none" xmlns="http://www.w3.org/2000/svg">
<path d="M13.2438 13.7077L8.90829 9.38202C8.57588 9.67551 8.18827 9.90166 7.74546 10.0605C7.30265 10.2193 6.8443 10.2987 6.37043 10.2987C5.23591 10.2987 4.27574 9.90694 3.4899 9.12345C2.70407 8.33997 2.31116 7.38997 2.31116 6.27347C2.31116 5.15697 2.7038 4.20663 3.48909 3.42244C4.27437 2.63825 5.22777 2.24615 6.34928 2.24615C7.4708 2.24615 8.4244 2.638 9.21008 3.4217C9.99574 4.20539 10.3886 5.15569 10.3886 6.2726C10.3886 6.73958 10.3085 7.19422 10.1483 7.63652C9.98809 8.07883 9.75636 8.47947 9.4531 8.83844L13.7989 13.1474L13.2438 13.7077ZM6.36016 9.5423C7.27286 9.5423 8.04608 9.22499 8.67983 8.59037C9.31358 7.95576 9.63046 7.18311 9.63046 6.27242C9.63046 5.36174 9.31358 4.58909 8.67983 3.95447C8.04608 3.31986 7.27286 3.00255 6.36016 3.00255C5.44174 3.00255 4.66366 3.31986 4.02591 3.95447C3.38817 4.58909 3.06929 5.36174 3.06929 6.27242C3.06929 7.18311 3.38817 7.95576 4.02591 8.59037C4.66366 9.22499 5.44174 9.5423 6.36016 9.5423Z" fill="#B8B8B8"/>
</svg>
