<svg width="48" height="48" viewBox="0 0 48 48" fill="none" xmlns="http://www.w3.org/2000/svg">
<path d="M9 42C8.2 42 7.5 41.7 6.9 41.1C6.3 40.5 6 39.8 6 39V25.5H9V39H22.5V42H9ZM25.5 42V39H39V25.5H42V39C42 39.8 41.7 40.5 41.1 41.1C40.5 41.7 39.8 42 39 42H25.5ZM11.85 34.6L17.75 27L22.4 33.35L29 24.8L36.35 34.6H11.85ZM6 22.5V9C6 8.2 6.3 7.5 6.9 6.9C7.5 6.3 8.2 6 9 6H22.5V9H9V22.5H6ZM39 22.5V9H25.5V6H39C39.8 6 40.5 6.3 41.1 6.9C41.7 7.5 42 8.2 42 9V22.5H39ZM31.2 19.5C30.42 19.5 29.775 19.245 29.265 18.735C28.755 18.225 28.5 17.58 28.5 16.8C28.5 16.02 28.755 15.375 29.265 14.865C29.775 14.355 30.42 14.1 31.2 14.1C31.98 14.1 32.625 14.355 33.135 14.865C33.645 15.375 33.9 16.02 33.9 16.8C33.9 17.58 33.645 18.225 33.135 18.735C32.625 19.245 31.98 19.5 31.2 19.5Z" fill="#464646"/>
</svg>
