<svg width="24" height="24" viewBox="0 0 24 24" fill="none" xmlns="http://www.w3.org/2000/svg">
<path d="M12.0052 15.3942C13.0825 15.3942 14 15.0136 14.7577 14.2525C15.5154 13.4913 15.8942 12.5721 15.8942 11.4948C15.8942 10.4175 15.5136 9.50001 14.7525 8.74233C13.9913 7.98465 13.0721 7.60581 11.9948 7.60581C10.9175 7.60581 10 7.98638 9.24232 8.74753C8.48464 9.5087 8.1058 10.4279 8.1058 11.5052C8.1058 12.5825 8.48637 13.5 9.24752 14.2577C10.0087 15.0154 10.9279 15.3942 12.0052 15.3942ZM11.9924 14.2712C11.2206 14.2712 10.567 14.001 10.0317 13.4607C9.49647 12.9204 9.22885 12.2643 9.22885 11.4924C9.22885 10.7206 9.499 10.067 10.0393 9.53173C10.5796 8.99648 11.2357 8.72886 12.0076 8.72886C12.7794 8.72886 13.433 8.99901 13.9683 9.53931C14.5035 10.0796 14.7711 10.7357 14.7711 11.5076C14.7711 12.2794 14.501 12.933 13.9607 13.4683C13.4204 14.0035 12.7643 14.2712 11.9924 14.2712ZM12.0014 18.5C9.70816 18.5 7.6263 17.858 5.7558 16.574C3.88528 15.29 2.47951 13.5987 1.5385 11.5C2.47951 9.40131 3.88482 7.70996 5.75442 6.42598C7.62401 5.14201 9.70541 4.50003 11.9986 4.50003C14.2918 4.50003 16.3737 5.14201 18.2442 6.42598C20.1147 7.70996 21.5205 9.40131 22.4615 11.5C21.5205 13.5987 20.1152 15.29 18.2456 16.574C16.376 17.858 14.2946 18.5 12.0014 18.5ZM11.9958 17.3654C13.9832 17.3654 15.8067 16.834 17.4663 15.7712C19.1259 14.7083 20.391 13.2846 21.2615 11.5C20.391 9.71539 19.1273 8.29167 17.4706 7.22886C15.8138 6.16604 13.9916 5.63463 12.0042 5.63463C10.0168 5.63463 8.19326 6.16604 6.53365 7.22886C4.87405 8.29167 3.60386 9.71539 2.7231 11.5C3.60386 13.2846 4.87265 14.7083 6.52945 15.7712C8.18625 16.834 10.0084 17.3654 11.9958 17.3654Z" fill="#697077"/>
</svg>
