<svg width="322" height="134" viewBox="0 0 322 134" fill="none" xmlns="http://www.w3.org/2000/svg">
<path d="M32 66.9998C14.5 53.4997 4 92.4997 4 92.4997L0 134H322L320 4.49969C320 4.49969 312.641 -0.612699 306 0.999845C287.158 5.57475 293.615 57.0068 277 66.9998C263.84 74.9144 256.276 55.0723 241 53.4998C220.575 51.3973 226.807 89.6007 214 105C206.397 114.142 201.081 75.1771 188.5 73.4998C173.5 71.4999 166.993 99.8046 165.5 83.9997C157 -6.00018 144.707 59.104 133.574 49.9998C108.5 61.9998 102 15.9998 81.5 31.9997C71.9772 39.432 71 1.99977 50.5 37.7971C42.3865 41.1231 40.5512 73.5965 32 66.9998Z" fill="url(#paint0_linear_1_1982)" fill-opacity="0.9"/>
<defs>
<linearGradient id="paint0_linear_1_1982" x1="161" y1="-5.51669" x2="161" y2="133.999" gradientUnits="userSpaceOnUse">
<stop stop-color="#FF9500"/>
<stop offset="1" stop-color="#D9D9D9" stop-opacity="0"/>
</linearGradient>
</defs>
</svg>
