<svg width="16" height="18" viewBox="0 0 16 18" fill="none" xmlns="http://www.w3.org/2000/svg">
<path d="M2.95772 17.5C2.56446 17.5 2.22576 17.3579 1.94162 17.0738C1.65749 16.7896 1.51542 16.4509 1.51542 16.0576V2.45194H0.500023V1.31734H4.77692V0.615417H11.2231V1.31734H15.5V2.45194H14.4846V16.0576C14.4846 16.4498 14.3422 16.7882 14.0575 17.0729C13.7728 17.3576 13.4344 17.5 13.0423 17.5H2.95772ZM13.35 2.45194H2.65V16.0576C2.65 16.1474 2.68045 16.2211 2.74135 16.2788C2.80226 16.3365 2.87439 16.3654 2.95772 16.3654H13.0423C13.1192 16.3654 13.1897 16.3333 13.2538 16.2692C13.3179 16.2051 13.35 16.1346 13.35 16.0576V2.45194ZM5.5308 14.2538H6.66537V4.53847H5.5308V14.2538ZM9.33462 14.2538H10.4692V4.53847H9.33462V14.2538Z" fill="#CD5642"/>
</svg>
