<svg width="304" height="107" viewBox="0 0 304 107" fill="none" xmlns="http://www.w3.org/2000/svg">
<path d="M1 92.4999C1 92.4999 11.5 53.4999 29 67C37.5512 73.5967 39.3865 41.1232 47.5 37.7972C68 1.99993 68.9772 39.4322 78.5 31.9998C99 15.9999 105.5 61.9999 130.574 49.9999C141.707 59.1041 154 -6.00002 162.5 83.9999C163.993 99.8047 170.5 71.5001 185.5 73.5C198.081 75.1773 203.397 114.142 211 105C223.807 89.6008 217.575 51.3975 238 53.5C253.276 55.0724 260.84 74.9146 274 67C290.615 57.0069 284.158 5.5749 303 1" stroke="#145DC9"/>
</svg>
